<mxfile host="65bd71144e">
    <diagram id="Muk35M1s3Lf1WXlXDoJJ" name="Page-1">
        <mxGraphModel dx="1281" dy="814" grid="1" gridSize="10" guides="1" tooltips="1" connect="1" arrows="1" fold="1" page="1" pageScale="1" pageWidth="1654" pageHeight="2336" background="#DAD2D8" math="0" shadow="0">
            <root>
                <mxCell id="0"/>
                <mxCell id="1" parent="0"/>
                <mxCell id="2" value="" style="rounded=1;whiteSpace=wrap;html=1;fillColor=#d5e8d4;strokeColor=#82b366;fontSize=15;fontStyle=0;labelBackgroundColor=none;verticalAlign=middle;align=center;gradientColor=none;strokeWidth=2;spacing=2;spacingTop=2;" parent="1" vertex="1">
                    <mxGeometry x="230" y="100" width="210" height="470" as="geometry"/>
                </mxCell>
                <mxCell id="3" value="ECStack调用栈" style="text;html=1;align=center;verticalAlign=middle;resizable=0;points=[];autosize=1;strokeColor=#82b366;rounded=1;fontSize=15;fontStyle=0;labelBackgroundColor=none;fillColor=#d5e8d4;gradientColor=none;strokeWidth=2;spacing=2;spacingTop=2;" parent="1" vertex="1">
                    <mxGeometry x="280" y="65" width="130" height="30" as="geometry"/>
                </mxCell>
                <mxCell id="4" value="" style="rounded=1;whiteSpace=wrap;html=1;fillColor=#d5e8d4;strokeColor=#82b366;fontSize=15;fontStyle=0;labelBackgroundColor=none;verticalAlign=middle;align=center;gradientColor=none;strokeWidth=2;spacing=2;spacingTop=2;" parent="1" vertex="1">
                    <mxGeometry x="520" y="100" width="510" height="470" as="geometry"/>
                </mxCell>
                <mxCell id="5" value="堆内存" style="text;html=1;align=center;verticalAlign=middle;resizable=0;points=[];autosize=1;strokeColor=#82b366;rounded=1;fontSize=15;fontStyle=0;labelBackgroundColor=none;fillColor=#d5e8d4;gradientColor=none;strokeWidth=2;spacing=2;spacingTop=2;" parent="1" vertex="1">
                    <mxGeometry x="660" y="65" width="70" height="30" as="geometry"/>
                </mxCell>
                <mxCell id="6" value="String&lt;br style=&quot;font-size: 15px;&quot;&gt;setTimeout&lt;br style=&quot;font-size: 15px;&quot;&gt;window&lt;br style=&quot;font-size: 15px;&quot;&gt;foo: 0xa00&lt;br style=&quot;font-size: 15px;&quot;&gt;fn: 0xb00" style="rounded=1;whiteSpace=wrap;html=1;align=center;fillColor=#d5e8d4;strokeColor=#82b366;fontSize=15;fontStyle=0;labelBackgroundColor=none;verticalAlign=middle;gradientColor=none;strokeWidth=2;spacing=2;spacingTop=2;" parent="1" vertex="1">
                    <mxGeometry x="550" y="130" width="120" height="110" as="geometry"/>
                </mxCell>
                <mxCell id="7" value="GO对象" style="text;html=1;align=center;verticalAlign=middle;resizable=0;points=[];autosize=1;strokeColor=#82b366;rounded=1;fontSize=15;fontStyle=0;labelBackgroundColor=none;fillColor=#d5e8d4;gradientColor=none;strokeWidth=2;spacing=2;spacingTop=2;" parent="1" vertex="1">
                    <mxGeometry x="570" y="105" width="80" height="30" as="geometry"/>
                </mxCell>
                <mxCell id="8" value="" style="rounded=1;whiteSpace=wrap;html=1;align=center;fillColor=#d5e8d4;strokeColor=#82b366;fontSize=15;fontStyle=0;labelBackgroundColor=none;verticalAlign=middle;gradientColor=none;strokeWidth=2;spacing=2;spacingTop=2;" parent="1" vertex="1">
                    <mxGeometry x="250" y="440" width="160" height="120" as="geometry"/>
                </mxCell>
                <mxCell id="9" value="GEC(全局执行上下文)" style="text;html=1;align=center;verticalAlign=middle;resizable=0;points=[];autosize=1;strokeColor=#82b366;rounded=1;fontSize=15;fontStyle=0;labelBackgroundColor=none;fillColor=#d5e8d4;gradientColor=none;strokeWidth=2;spacing=2;spacingTop=2;" parent="1" vertex="1">
                    <mxGeometry x="245" y="405" width="170" height="30" as="geometry"/>
                </mxCell>
                <mxCell id="10" value="" style="rounded=1;whiteSpace=wrap;html=1;align=center;fillColor=#d5e8d4;strokeColor=#82b366;fontSize=15;fontStyle=0;labelBackgroundColor=none;verticalAlign=middle;gradientColor=none;strokeWidth=2;spacing=2;spacingTop=2;" parent="1" vertex="1">
                    <mxGeometry x="710" y="280" width="120" height="60" as="geometry"/>
                </mxCell>
                <mxCell id="11" value="bar函数对象0xb00" style="text;html=1;align=center;verticalAlign=middle;resizable=0;points=[];autosize=1;strokeColor=#82b366;rounded=1;fontSize=15;fontStyle=0;labelBackgroundColor=none;fillColor=#d5e8d4;gradientColor=none;strokeWidth=2;spacing=2;spacingTop=2;" parent="1" vertex="1">
                    <mxGeometry x="685" y="245" width="150" height="30" as="geometry"/>
                </mxCell>
                <mxCell id="12" value="VO: GO" style="rounded=1;whiteSpace=wrap;html=1;align=center;fillColor=#d5e8d4;strokeColor=#82b366;fontSize=15;fontStyle=0;labelBackgroundColor=none;verticalAlign=middle;gradientColor=none;strokeWidth=2;spacing=2;spacingTop=2;" parent="1" vertex="1">
                    <mxGeometry x="275" y="450" width="120" height="40" as="geometry"/>
                </mxCell>
                <mxCell id="13" value="开始执行代码&lt;br style=&quot;font-size: 15px;&quot;&gt;var fn = 0xb00" style="rounded=1;whiteSpace=wrap;html=1;align=center;fillColor=#d5e8d4;strokeColor=#82b366;fontSize=15;fontStyle=0;labelBackgroundColor=none;verticalAlign=middle;gradientColor=none;strokeWidth=2;spacing=2;spacingTop=2;" parent="1" vertex="1">
                    <mxGeometry x="275" y="500" width="120" height="50" as="geometry"/>
                </mxCell>
                <mxCell id="17" value="bar: 0xb00" style="rounded=1;whiteSpace=wrap;html=1;align=center;fillColor=#d5e8d4;strokeColor=#82b366;fontSize=15;fontStyle=0;labelBackgroundColor=none;verticalAlign=middle;gradientColor=none;strokeWidth=2;spacing=2;spacingTop=2;" parent="1" vertex="1">
                    <mxGeometry x="710" y="130" width="120" height="110" as="geometry"/>
                </mxCell>
                <mxCell id="18" value="AO对象" style="text;html=1;align=center;verticalAlign=middle;resizable=0;points=[];autosize=1;strokeColor=#82b366;rounded=1;fontSize=15;fontStyle=0;labelBackgroundColor=none;fillColor=#d5e8d4;gradientColor=none;strokeWidth=2;spacing=2;spacingTop=2;" parent="1" vertex="1">
                    <mxGeometry x="730" y="105" width="80" height="30" as="geometry"/>
                </mxCell>
                <mxCell id="19" value="" style="rounded=1;whiteSpace=wrap;html=1;align=center;fillColor=#d5e8d4;strokeColor=#82b366;fontSize=15;fontStyle=0;labelBackgroundColor=none;verticalAlign=middle;gradientColor=none;strokeWidth=2;spacing=2;spacingTop=2;" parent="1" vertex="1">
                    <mxGeometry x="550" y="280" width="120" height="60" as="geometry"/>
                </mxCell>
                <mxCell id="20" value="foo函数对象0xa00" style="text;html=1;align=center;verticalAlign=middle;resizable=0;points=[];autosize=1;strokeColor=#82b366;rounded=1;fontSize=15;fontStyle=0;labelBackgroundColor=none;fillColor=#d5e8d4;gradientColor=none;strokeWidth=2;spacing=2;spacingTop=2;" parent="1" vertex="1">
                    <mxGeometry x="525" y="245" width="150" height="30" as="geometry"/>
                </mxCell>
                <mxCell id="28" value="" style="rounded=1;whiteSpace=wrap;html=1;align=center;fillColor=#d5e8d4;strokeColor=#82b366;fontSize=15;fontStyle=0;labelBackgroundColor=none;verticalAlign=middle;gradientColor=none;strokeWidth=2;spacing=2;spacingTop=2;" parent="1" vertex="1">
                    <mxGeometry x="870" y="125" width="120" height="110" as="geometry"/>
                </mxCell>
                <mxCell id="29" value="AO对象" style="text;html=1;align=center;verticalAlign=middle;resizable=0;points=[];autosize=1;strokeColor=#82b366;rounded=1;fontSize=15;fontStyle=0;labelBackgroundColor=none;fillColor=#d5e8d4;gradientColor=none;strokeWidth=2;spacing=2;spacingTop=2;" parent="1" vertex="1">
                    <mxGeometry x="880" y="100" width="80" height="30" as="geometry"/>
                </mxCell>
            </root>
        </mxGraphModel>
    </diagram>
</mxfile>